<?xml version="1.0" encoding="UTF-8"?>
<svg version="1.1" xmlns="http://www.w3.org/2000/svg" width="2760" height="1345">
<path d="M0 0 C35.39744519 -0.06893687 70.79487661 -0.12166527 106.19237501 -0.15319599 C110.38842264 -0.1569473 114.58447014 -0.16083035 118.78051758 -0.16479492 C119.61573932 -0.16558185 120.45096106 -0.16636878 121.31149255 -0.16717956 C134.76681191 -0.18016975 148.22209211 -0.20378761 161.67738838 -0.23145839 C175.52357757 -0.25969173 189.36974651 -0.27621375 203.2159633 -0.28226548 C211.73319179 -0.28634514 220.25030953 -0.2991429 228.76750385 -0.3237494 C234.63879384 -0.33982907 240.51002811 -0.34435127 246.38133842 -0.34050413 C249.74926452 -0.33861633 253.11684849 -0.3428661 256.4847641 -0.35761642 C316.33886767 -0.60650833 381.67277633 9.22841005 426 53 C445.37337116 72.34445568 457.61330718 97.7745084 461 125 C461.16435547 126.27423828 461.16435547 126.27423828 461.33203125 127.57421875 C464.9628742 160.73591768 457.18619112 196.00901443 436.30078125 222.5 C433.63638767 225.76473476 430.84360085 228.89033123 428 232 C427.28328125 232.79921875 426.5665625 233.5984375 425.828125 234.421875 C404.45105973 257.08477879 374.05987994 268.21494759 345 277 C345.87398438 277.23074219 346.74796875 277.46148437 347.6484375 277.69921875 C385.45338527 287.7250592 423.85096954 298.82173299 456 322 C456.99257813 322.70769531 457.98515625 323.41539062 459.0078125 324.14453125 C465.17013591 328.64413057 470.88553493 333.45808424 476.46875 338.65625 C478.68482777 340.70817386 480.94505634 342.67466306 483.25 344.625 C487.23990633 348.12222559 490.68965854 351.85523363 494 356 C494.72703125 356.90492188 495.4540625 357.80984375 496.203125 358.7421875 C514.59977073 382.57807161 525.65203434 412.3684096 530 442 C530.15033691 442.99676758 530.15033691 442.99676758 530.30371094 444.01367188 C536.00135786 487.36445164 525.69306415 533.71525229 499.125 568.6875 C491.08196864 578.95080829 482.44326437 588.11540493 472 596 C471.47035645 596.40460449 470.94071289 596.80920898 470.39501953 597.22607422 C432.0813135 626.32211783 381.59057787 637.27324692 334.31298828 637.31884766 C332.07345224 637.32817274 329.83391959 637.33834512 327.59439087 637.34928894 C321.52589328 637.37649935 315.45741895 637.39174313 309.38887644 637.40471697 C302.90041042 637.4205968 296.41198801 637.44736555 289.92355347 637.4727478 C278.92642748 637.51459835 267.92929486 637.54875301 256.93212891 637.578125 C245.90280928 637.60759748 234.87352198 637.6418107 223.84423828 637.68261719 C223.17789833 637.68507825 222.51155838 637.68753931 221.8250263 637.69007495 C219.13742728 637.70001028 216.44982832 637.70996358 213.76222946 637.71994175 C141.17473635 637.9888675 68.58797367 638.05238002 -4 638 C-4.05974146 630.34757539 -4.07393116 622.75742636 -3.38916016 615.1328125 C-3.32409775 614.35253693 -3.25903534 613.57226135 -3.19200134 612.76834106 C-3.05197907 611.09442304 -2.90951797 609.42070744 -2.76475906 607.74719238 C-2.53040217 605.02438239 -2.30535787 602.30093177 -2.08261108 599.57714844 C-1.44879795 591.83709039 -0.80631125 584.09782187 -0.14160156 576.36035156 C4.6742946 520.09342409 5.33047128 463.81699084 5.20059848 407.38593805 C5.18886305 402.04089486 5.18485749 396.69588546 5.18530273 391.35083008 C5.21487824 349.23817508 5.21487824 349.23817508 4.37796021 307.13607788 C3.97722071 293.90812409 3.84580771 280.68263974 3.75390625 267.44921875 C3.74591696 266.31334131 3.73792767 265.17746387 3.72969627 264.00716591 C3.68847182 258.05886585 3.64956821 252.11055291 3.61157227 246.16223145 C3.52742094 233.13799392 3.4257455 220.11389179 3.31640625 207.08984375 C3.31077935 206.41824046 3.30515244 205.74663716 3.29935503 205.05468225 C3.03693844 173.93490331 2.58311331 142.81878339 2.06562424 111.70230484 C2.00079424 107.79783395 1.93686167 103.89334918 1.87307739 99.98886108 C1.29173081 64.0381562 1.29173081 64.0381562 0.3046875 28.09686279 C0.0881097 21.40707569 -0.02521732 14.73311712 -0.01147461 8.04022217 C-0.01064629 7.26259207 -0.00981796 6.48496197 -0.00896454 5.68376732 C-0.00682591 3.78917706 -0.00353414 1.89458817 0 0 Z M104 24 C103.9926251 25.7582741 103.98736727 27.51655716 103.98300171 29.27484131 C103.9798464 30.25398373 103.97669109 31.23312614 103.97344017 32.24193954 C104.02850288 37.95983316 104.87475552 43.58949006 105.625 49.25 C105.7123642 49.9155188 105.79972839 50.5810376 105.88973999 51.26672363 C110.79419075 88.30357494 117.99648848 126.83897047 135.91845703 159.99755859 C137.07654091 162.14171298 138.20736993 164.2992534 139.33984375 166.45703125 C144.43897364 176.03265187 150.12007571 184.85474845 156.77734375 193.41894531 C157.83100151 194.78146282 158.85588529 196.16614371 159.875 197.5546875 C174.49344051 216.93717336 193.53665809 231.96232884 215 243 C215.60634277 243.31807617 216.21268555 243.63615234 216.83740234 243.96386719 C242.57785064 257.33353287 273.63978137 263.21317103 302 256 C325.02626781 248.54309477 339.28780638 231.76578213 350.25 211.0625 C367.6392422 174.65077185 366.91397917 130.64378576 354 93 C350.09228581 82.71318419 345.00305925 73.52246066 338 65 C337.09701172 63.85337891 337.09701172 63.85337891 336.17578125 62.68359375 C315.22305299 37.4261121 280.66433604 27.69739549 249.2909584 24.27151108 C237.97328409 23.33777884 226.54577029 23.63121067 215.19679618 23.69581819 C211.27312587 23.71486359 207.34944488 23.71635695 203.42573547 23.71989441 C196.03151544 23.72913455 188.6374321 23.75363667 181.24327165 23.78394288 C172.81007457 23.81774061 164.37687018 23.83403596 155.94362199 23.84902918 C138.62900291 23.88019572 121.31451601 23.93279571 104 24 Z M105 162 C105 247.8 105 333.6 105 422 C107.12411303 419.16784929 108.56235101 417.09379759 110.0234375 414.0078125 C110.39782959 413.23147461 110.77222168 412.45513672 111.15795898 411.65527344 C111.55958252 410.8202832 111.96120605 409.98529297 112.375 409.125 C125.00424455 383.42702737 140.51859299 359.99623613 160 339 C160.59941406 338.33484375 161.19882813 337.6696875 161.81640625 336.984375 C172.21585585 325.93355598 185.56734481 317.82801819 199 311 C200.36125 310.28457031 200.36125 310.28457031 201.75 309.5546875 C207.76591071 306.8663274 213.68949647 306.60452078 220.1875 306.5 C221.03151367 306.48122803 221.87552734 306.46245605 222.74511719 306.44311523 C229.50686788 306.51285824 235.12992215 308.12992215 240 313 C239.09459473 313.48243164 239.09459473 313.48243164 238.17089844 313.97460938 C218.97716525 324.23370733 201.99266709 335.11650175 186 350 C185.28328125 350.65097656 184.5665625 351.30195313 183.828125 351.97265625 C166.86267892 368.04029588 154.81387732 389.21023317 144.88378906 410.14697266 C144.03170766 411.93351903 143.1530491 413.70731504 142.2734375 415.48046875 C117.45183661 466.54042858 109.01033516 523.92445153 105 580 C104.92591919 581.02305237 104.92591919 581.02305237 104.8503418 582.06677246 C104.70000854 584.18730797 104.55947812 586.3082906 104.421875 588.4296875 C104.3403418 589.66702637 104.25880859 590.90436523 104.17480469 592.17919922 C103.95337562 596.71926409 103.98043573 601.25714024 103.98907471 605.80130005 C103.98986338 606.59037026 103.99065205 607.37944048 103.99146461 608.19242191 C103.99351328 610.12828228 103.99664811 612.06414145 104 614 C129.09668961 614.0468553 154.1933726 614.08205487 179.29009724 614.10362434 C190.94463379 614.1139085 202.59914307 614.12791375 214.25366211 614.15087891 C224.41940572 614.17090078 234.58512956 614.18373719 244.75089234 614.18817699 C250.12659447 614.19076956 255.50224007 614.19680267 260.87792397 614.21146011 C265.95286091 614.2251835 271.02771883 614.2291933 276.10267258 614.22621536 C277.95074966 614.226759 279.79882979 614.23064755 281.64689064 614.23841095 C317.73599248 614.3823904 352.41129741 607.21774811 381 584 C381.72703125 583.42636719 382.4540625 582.85273437 383.203125 582.26171875 C411.55666988 558.87562563 422.56124058 518.08750769 426 483 C426.15915039 480.04291203 426.20937267 477.08987526 426.23828125 474.12890625 C426.2480751 473.29759186 426.25786896 472.46627747 426.26795959 471.60977173 C426.70824406 424.51769005 417.4577914 380.08543006 383.9296875 344.9375 C369.91897916 330.67273583 353.0519152 320.36038301 335 312 C333.95585937 311.50242187 332.91171875 311.00484375 331.8359375 310.4921875 C314.80445032 302.75828637 296.49753995 297.60643233 278.5390625 292.46484375 C277.88858507 292.27851442 277.23810764 292.0921851 276.56791878 291.90020943 C270.578972 290.18732978 264.58557832 288.49024393 258.59033203 286.79956055 C217.78444602 275.27851606 217.78444602 275.27851606 199.9375 265.5 C199.06738281 265.03279541 198.19726562 264.56559082 197.30078125 264.08422852 C190.58285519 260.42884953 184.1746149 256.52571206 178 252 C176.948125 251.23171875 175.89625 250.4634375 174.8125 249.671875 C167.084677 243.92314256 159.96280033 237.64630941 153 231 C152.14664063 230.19949219 151.29328125 229.39898437 150.4140625 228.57421875 C133.67281307 212.44030171 120.65599975 192.16196828 110.65063477 171.27880859 C108.99049171 167.83746582 107.31802582 165.09070109 105 162 Z " fill="#F2EDE7" transform="translate(4,0)"/>
<path d="M0 0 C37.95 0 75.9 0 115 0 C114.41352688 10.55651623 113.81465166 21.10184084 113.09765625 31.6484375 C112.88320145 34.90001091 112.66977299 38.15164957 112.45688725 41.40332603 C112.24428056 44.64211155 112.02771751 47.88054942 111.80493164 51.11865234 C108.34079245 101.6640426 107.69127877 152.24446105 107.85594481 202.88515866 C107.87906901 210.12930581 107.88948298 217.37345893 107.89935279 224.6176343 C107.91976723 239.41179528 107.95448355 254.20589345 108 269 C109.03255417 268.30903229 110.06510834 267.61806458 111.12895203 266.90615845 C112.49568962 265.99289875 113.86245651 265.07968287 115.22924805 264.16650391 C115.90838005 263.71187271 116.58751205 263.25724152 117.28722382 262.78883362 C163.82411375 231.71356484 220.5346974 221.50632769 275.35107422 231.61816406 C296.04297979 235.74513144 315.45573147 241.90443395 334 252 C334.61069336 252.32613281 335.22138672 252.65226563 335.85058594 252.98828125 C356.95889094 264.30314416 375.18587255 280.28361459 390 299 C390.42780762 299.54027832 390.85561523 300.08055664 391.29638672 300.63720703 C399.25346208 310.72359928 399.25346208 310.72359928 402.64746094 316.20239258 C403.09023376 316.91567215 403.53300659 317.62895172 403.98919678 318.36384583 C404.48954437 319.17374214 404.48954437 319.17374214 405 320 C405.22578313 300.58377407 405.36057656 281.16732284 405.4375 261.75 C405.44206018 260.63252585 405.44206018 260.63252585 405.44671249 259.49247646 C405.69478531 196.91870067 403.44136537 134.54565882 400.48999023 72.04980469 C400.44932281 71.18741534 400.40865538 70.325026 400.3667556 69.43650365 C399.98093081 61.26244095 399.59260523 53.08856433 399.18062407 44.91577291 C399.03293511 41.97608442 398.88865269 39.03623349 398.74478257 36.09635592 C398.6480108 34.14703083 398.54627091 32.19795422 398.4442358 30.24889755 C397.95068769 20.1287867 398 10.17312812 398 0 C435.95 0 473.9 0 513 0 C512.43772705 9.19536621 511.8754541 18.39073242 511.29614258 27.86474609 C510.93266657 34.019342 510.57087767 40.17390952 510.22062683 46.32925415 C510.17539598 47.123952 510.13016513 47.91864985 510.08356365 48.73742945 C505.30301936 132.96244496 503.57878732 216.97114119 503.68568148 301.32162949 C503.70104853 314.42679212 503.65869116 327.53082633 503.57983398 340.63574219 C503.09577933 422.64071112 505.22419085 503.43053213 517.18957919 611.93653166 C517.29706762 612.84708229 517.40455605 613.75763292 517.5153017 614.69577599 C517.60946348 615.48464868 517.70362525 616.27352137 517.8006404 617.0862993 C518 619 518 619 518 621 C477.41 621 436.82 621 395 621 C395.5938772 607.93470153 396.21994864 595.00732641 397.37153625 582.00026512 C397.60417117 579.36229775 397.8294954 576.72378474 398.05310059 574.08503723 C398.68808427 566.59835413 399.32962912 559.11228348 399.98876953 551.62768555 C402.17073051 526.78294888 403.56868439 502.07555679 403.91943359 477.13717651 C403.99585843 471.91032739 404.1185964 466.68504335 404.24609375 461.45922852 C404.43707707 453.51409154 404.57082838 445.56984269 404.65190125 437.62281895 C404.69859506 433.1877771 404.76732918 428.75531293 404.88476562 424.3215332 C405.49682325 400.54606987 403.80086377 382.51431744 393 361 C392.0815634 359.04708757 391.16873617 357.09152484 390.26220703 355.13305664 C383.65309117 340.88917811 375.1830018 327.94698636 365 316 C364.30390625 315.16984375 363.6078125 314.3396875 362.890625 313.484375 C357.47118927 307.21935355 351.5467509 302.05519919 345 297 C344.08605469 296.27039063 343.17210938 295.54078125 342.23046875 294.7890625 C305.01604593 265.77097631 257.24573305 255.7429763 210.90234375 261.31640625 C173.5164228 266.30762323 142.33159554 284.17351219 114.13598633 308.50952148 C110.19684373 311.90157814 110.19684373 311.90157814 108 313 C107.92883601 333.39848897 107.87650122 353.79695163 107.84456348 374.19554043 C107.82931756 383.67426747 107.80858733 393.15291514 107.77368164 402.6315918 C107.53038329 470.10088578 109.35930372 536.9263291 118.42529297 603.88525391 C118.58277512 605.05541046 118.58277512 605.05541046 118.74343872 606.24920654 C118.93900731 607.69483664 119.13757048 609.14006634 119.33981323 610.58477783 C119.8212773 614.13172409 120 617.3947729 120 621 C79.41 621 38.82 621 -3 621 C-1.37191406 601.80585937 0.25617188 582.61171875 1.93359375 562.8359375 C2.91183595 550.08191307 3.87819747 537.33353716 4.69873047 524.56933594 C4.75097868 523.76126895 4.80322689 522.95320196 4.85705838 522.12064809 C8.98499161 457.90464253 8.39201287 393.5261161 8.12742846 329.20847389 C8.0704058 315.19677305 8.05747449 301.18562419 8.07739258 287.17382812 C8.19427014 201.29956246 7.2048787 115.79420968 1.04001427 30.11143112 C0.96986577 29.11654155 0.89971727 28.12165198 0.82744306 27.09661424 C0.70008185 25.29851514 0.56891934 23.50067757 0.43242604 21.70324862 C-0.08099356 14.41657401 0 7.37034978 0 0 Z " fill="#F2EDE7" transform="translate(1984,716)"/>
<path d="M0 0 C46.84677384 -0.04460894 93.69279536 0.01299937 140.53911209 0.23571968 C150.11509486 0.28101031 159.691033 0.32057361 169.26708984 0.34643555 C177.84219193 0.36959564 186.41718238 0.40308247 194.99219549 0.44870156 C199.46167668 0.47217841 203.93105181 0.49120522 208.4005928 0.49761391 C297.72624883 0.64314894 375.65710064 30.8054226 439.6875 93.5 C444.01234213 97.86821447 447.96233077 102.42038527 451.78125 107.234375 C453.22011132 109.02788524 454.69780595 110.79117435 456.21875 112.515625 C469.20023483 127.31451771 479.92164724 144.56000654 489 162 C489.32871094 162.62712891 489.65742188 163.25425781 489.99609375 163.90039062 C492.05983699 167.86325944 494.04705856 171.85795916 495.98193359 175.88525391 C496.66287644 177.2997208 497.35076326 178.71086491 498.04541016 180.11865234 C532.95249209 251.19374876 537.36440844 336.21829869 517 412 C516.61569824 413.43158447 516.61569824 413.43158447 516.22363281 414.89208984 C504.13246099 458.9861813 482.45509232 502.42069726 450.44750977 535.45581055 C448.78562095 537.2286975 447.20799651 539.06264499 445.625 540.90625 C442.10771922 544.95042835 438.35820334 548.66178812 434.4375 552.3125 C433.39215088 553.28678955 433.39215088 553.28678955 432.32568359 554.28076172 C426.41478677 559.72716382 420.30271699 564.80113092 413.86328125 569.60791016 C412.57957269 570.56699116 411.30121209 571.5332582 410.02734375 572.50537109 C340.51553282 625.48009797 260.41639388 637.40436239 175.72692394 637.20278788 C169.49570856 637.19013025 163.26449042 637.18909835 157.03326416 637.18673706 C145.27961889 637.18056583 133.52601164 637.16421517 121.77238297 637.14403808 C112.37901868 637.12826909 102.98565967 637.11726769 93.59228516 637.10986328 C92.59520854 637.10907511 92.59520854 637.10907511 91.57798895 637.10827102 C88.24215073 637.10566029 84.90631246 637.10313758 81.57047415 637.10064721 C54.04696184 637.07984414 26.52348307 637.04475465 -1 637 C-1.15069202 628.62200659 -0.75509883 620.36427288 -0.09324367 612.0136652 C0.20180663 608.25479396 0.47383487 604.49424448 0.74664402 600.73370361 C0.80490159 599.9308641 0.86315915 599.12802458 0.9231821 598.30085659 C4.24341844 552.18600849 4.73389864 506.21436651 4.64473558 459.99729615 C4.63028095 452.28188447 4.62684875 444.56652859 4.6301403 436.85110474 C4.63085647 435.16745344 4.63085647 435.16745344 4.6315871 433.44978899 C4.63261406 431.16523749 4.63366945 428.88068601 4.63475286 426.59613454 C4.64321957 406.62475805 4.62698896 386.6534811 4.59692383 366.68212891 C4.56820591 347.60363566 4.56097162 328.52528625 4.57641602 309.44677734 C4.5934599 288.36548533 4.59692667 267.28426076 4.57970566 246.20296669 C4.57786253 243.92213568 4.5760278 241.64130466 4.57420158 239.36047363 C4.57328949 238.24010881 4.5723774 237.11974398 4.57143768 235.96542871 C4.56599629 228.33448407 4.5690528 220.70357443 4.57574654 213.07263184 C4.615414 161.21792309 3.67177663 109.50488596 1.3940897 57.6962738 C1.25797747 54.59378989 1.12192284 51.49130354 0.98610022 48.38880694 C0.89950984 46.41125253 0.81263447 44.43371058 0.7254589 42.45618188 C0.10637539 28.29478904 -0.27168661 14.17717682 0 0 Z M106 24 C106 218.37 106 412.74 106 613 C197.99485094 617.07970161 197.99485094 617.07970161 287 591 C287.63244629 590.64534668 288.26489258 590.29069336 288.91650391 589.92529297 C303.40416914 581.71573911 316.51859019 571.99392643 329 561 C329.50192871 560.56123535 330.00385742 560.1224707 330.52099609 559.67041016 C335.80295923 555.03896066 340.82393227 550.34811723 345.34375 544.96484375 C347.06835954 542.91890366 348.87326275 540.96666292 350.6875 539 C365.49208102 522.25943531 377.65666981 503.04202819 387.13232422 482.83251953 C387.97047919 481.06234756 388.84596018 479.30999792 389.72265625 477.55859375 C416.70425287 422.55055508 424.88897715 357.53674904 421.25 296.875 C421.20709839 296.15277252 421.16419678 295.43054504 421.11999512 294.68643188 C416.18550155 213.77110029 390.38951138 128.55024304 328 73 C259.75334455 15.75654765 199.01656699 24.853363 106 24 Z " fill="#F2EDE7" transform="translate(2047,0)"/>
<path d="M0 0 C28.26947487 -0.02325018 56.53894854 -0.04072695 84.80843123 -0.05106533 C88.21213125 -0.05231475 91.61583126 -0.0536092 95.01953125 -0.05493164 C95.6966193 -0.05519395 96.37370735 -0.05545626 97.07131322 -0.05572652 C107.1155787 -0.05971654 117.1598389 -0.06671877 127.20410156 -0.07543945 C179.44380394 -0.11959984 231.6849923 -0.14968616 283.92341995 0.26773262 C288.10260319 0.30097825 292.28175015 0.32822171 296.46100998 0.34971428 C320.84514019 0.48097718 344.83117652 0.68093557 368.625 6.75 C369.65439697 7.00604004 370.68379395 7.26208008 371.74438477 7.52587891 C401.70981244 15.17456642 430.9054828 27.76838397 456 46 C456.68545898 46.49757813 457.37091797 46.99515625 458.07714844 47.5078125 C504.78651666 81.72342549 532.99279929 130.03676571 543 187 C543.12600586 187.69851074 543.25201172 188.39702148 543.38183594 189.11669922 C552.86634764 243.27973414 539.83646772 302.38588385 508.421875 347.3125 C503.9507869 353.52706268 499.13617886 359.32928669 494 365 C493.13503906 365.98484375 492.27007812 366.9696875 491.37890625 367.984375 C486.55034549 373.42293659 481.62431002 378.39743964 476 383 C474.96864229 383.87877986 473.93740265 384.75769829 472.90625 385.63671875 C441.96042099 411.60903359 403.67758709 426.81194846 364 433 C362.82727539 433.19263428 362.82727539 433.19263428 361.63085938 433.38916016 C312.76446521 441.11229716 259.66938924 431.98825652 218.75 403.7578125 C215.7685259 401.57605671 212.87484676 399.32018883 210 397 C208.4840625 395.78957031 208.4840625 395.78957031 206.9375 394.5546875 C193.61306539 383.71495759 181.42439052 371.53461679 171.24267578 357.68701172 C170.02135039 356.02898451 168.77622084 354.39123502 167.52734375 352.75390625 C145.12193092 322.90664804 131.37074442 287.47123841 119.625 252.375 C119.2542485 251.27016266 119.2542485 251.27016266 118.87600708 250.14300537 C118.63534515 249.42276184 118.39468323 248.70251831 118.14672852 247.96044922 C117.83385643 247.02421219 117.83385643 247.02421219 117.5146637 246.06906128 C115.29129288 239.24005976 113.22960007 232.3856828 111.32958984 225.45947266 C111.10341476 224.63997635 110.87723969 223.82048004 110.64421082 222.97615051 C110.09473926 220.9844864 109.54716635 218.99229864 109 217 C108.93094757 249.041838 108.87815933 281.08365407 108.84680401 313.12554955 C108.84305373 316.94388863 108.83917059 320.76222755 108.83520508 324.58056641 C108.83441815 325.34044625 108.83363122 326.10032609 108.83282044 326.88323259 C108.81991241 339.04452653 108.79634338 351.20577611 108.76854161 363.36704409 C108.74007332 375.92852957 108.72373852 388.48999251 108.71773452 401.0515089 C108.71405546 408.07217187 108.70544831 415.09274317 108.68280983 422.1133728 C108.53671281 468.82203115 110.04111238 515.3628233 114.5 561.875 C114.70270729 564.09757577 114.90451975 566.32023332 115.10546875 568.54296875 C116.23659006 580.87548341 117.54345924 593.17880018 119.0604248 605.47018433 C119.18292603 606.48565338 119.30542725 607.50112244 119.43164062 608.54736328 C119.54141235 609.43368439 119.65118408 610.32000549 119.76428223 611.23318481 C120.04072163 614.47798361 120 617.74344692 120 621 C79.74 621 39.48 621 -2 621 C-2 614.84291705 -1.95635232 609.42110967 -1.265625 603.41796875 C-1.10325444 601.94629018 -0.94167739 600.47452391 -0.78076172 599.00268555 C-0.69437439 598.22420258 -0.60798706 597.4457196 -0.51898193 596.64364624 C1.50173459 578.19194125 2.89703305 559.70695846 4.125 541.1875 C4.20504272 540.0162558 4.28508545 538.8450116 4.36755371 537.63827515 C7.40305921 492.9130496 8.30658694 448.20718334 8.23571944 403.38901472 C8.22665992 397.12540465 8.22856361 390.86179152 8.22899476 384.59817643 C8.22948942 372.14421514 8.2205102 359.69027997 8.20581055 347.23632812 C8.19182802 335.38248205 8.1846893 323.52865911 8.18530273 311.67480469 C8.21481842 231.62039775 8.21481842 231.62039775 7.60020661 151.56906939 C7.57111863 149.13769442 7.54340889 146.70630678 7.51587486 144.27491379 C7.05997083 105.02074221 4.67423577 65.93063306 1.89453125 26.78125 C1.70939799 24.16048992 1.52437963 21.53972172 1.33947754 18.91894531 C0.89430129 12.61253658 0.44773869 6.3062273 0 0 Z M107 24 C107.40477782 29.47664892 107.81120776 34.95317199 108.21908188 40.42959118 C108.35723202 42.28749795 108.49495292 44.14543669 108.63221359 46.00340939 C109.61492681 59.30024617 110.69283958 72.56863872 112.25 85.8125 C112.40340347 87.14030487 112.40340347 87.14030487 112.55990601 88.49493408 C117.68688596 132.54973609 125.6782749 176.36846008 138 219 C138.51965332 220.79824219 138.51965332 220.79824219 139.04980469 222.6328125 C152.17261597 267.48809424 170.04577928 313.2282172 201 349 C201.75152344 349.87398437 202.50304687 350.74796875 203.27734375 351.6484375 C225.98395743 377.49904384 261.3430919 397.37337118 296 400 C327.50378406 401.76364299 356.52857193 392.45197832 380.25 371.4375 C381.8385041 369.96388771 383.42232014 368.48519518 385 367 C385.60328125 366.46117187 386.2065625 365.92234375 386.828125 365.3671875 C416.19880343 338.05520148 429.41981424 289.25887525 431.10700989 250.54455566 C431.16286134 248.0371451 431.19023868 245.53143371 431.203125 243.0234375 C431.21371445 241.64377304 431.21371445 241.64377304 431.22451782 240.23623657 C431.42568693 211.98754125 431.42568693 211.98754125 428 184 C427.69400879 182.30182129 427.69400879 182.30182129 427.38183594 180.56933594 C424.41163707 164.31754914 420.58759511 148.55360244 415 133 C414.62125732 131.93821533 414.62125732 131.93821533 414.23486328 130.85498047 C406.67991082 110.02713224 394.8197237 92.33258942 380 76 C379.42540039 75.36271973 378.85080078 74.72543945 378.25878906 74.06884766 C368.32339247 63.19987091 357.78430292 55.24611826 345 48 C344.02015137 47.42862305 344.02015137 47.42862305 343.02050781 46.84570312 C309.22004994 27.18062874 274.14217685 23.50840889 235.85575008 23.69581819 C231.31280327 23.71479834 226.76984803 23.71635199 222.22686768 23.71989441 C213.6568135 23.72915308 205.08687656 23.75368152 196.5168736 23.78394288 C186.74635839 23.81768138 176.97583705 23.83402138 167.20527792 23.84902918 C147.13678696 23.88023792 127.06840092 23.93287575 107 24 Z " fill="#F2EDE7" transform="translate(2,716)"/>
<path d="M0 0 C30.69 0 61.38 0 93 0 C97.29 7.59 101.58 15.18 106 23 C108.60797902 27.44989422 111.22338151 31.88931369 113.875 36.3125 C119.15384591 45.16849222 124.36625821 54.05894747 129.5 63 C134.59751584 71.87536682 139.76697263 80.7038585 145 89.5 C150.83966762 99.31763708 156.590178 109.18201359 162.28295898 119.08544922 C167.00251787 127.28924207 171.77057873 135.46336373 176.5625 143.625 C176.92041626 144.23465607 177.27833252 144.84431213 177.64709473 145.47244263 C179.07346692 147.90195688 180.49985762 150.33146026 181.9263916 152.76087952 C185.35726505 158.6052941 188.77422183 164.45779318 192.1875 170.3125 C192.7556543 171.28695068 193.32380859 172.26140137 193.90917969 173.26538086 C196.16935356 177.14250301 198.42890441 181.01998808 200.68847656 184.89746094 C207.61018665 196.77407819 214.54523025 208.64271958 221.5 220.5 C229.58588585 234.28573547 237.64162818 248.08890156 245.68847656 261.89746094 C252.61018665 273.77407819 259.54523025 285.64271958 266.5 297.5 C274.58588585 311.28573547 282.64162818 325.08890156 290.68847656 338.89746094 C297.61018665 350.77407819 304.54523025 362.64271958 311.5 374.5 C319.58588585 388.28573547 327.64162818 402.08890156 335.68847656 415.89746094 C342.61018665 427.77407819 349.54523025 439.64271958 356.5 451.5 C364.58588585 465.28573547 372.64162818 479.08890156 380.68847656 492.89746094 C387.96925634 505.39018796 395.26661913 517.87300567 402.58236694 530.34527588 C409.17034018 541.57732194 415.7375211 552.82139665 422.29348755 564.07215881 C424.09387876 567.16106656 425.8952135 570.24942253 427.69677734 573.33764648 C428.31805511 574.40264877 428.93933289 575.46765106 429.57943726 576.56492615 C430.04822296 577.36850052 430.51700867 578.17207489 431 579 C431.72728523 501.14464019 432.14148347 423.28818196 432.22839546 345.42942065 C432.22964361 344.31196202 432.23089176 343.19450339 432.23217773 342.04318237 C432.23341078 340.92807449 432.23464382 339.8129666 432.23591423 338.66406757 C432.2453046 330.83478996 432.26264411 323.00555491 432.28344727 315.17630005 C432.3089541 305.50952604 432.32314576 295.84280999 432.32373834 286.17600119 C432.3242803 281.20164744 432.32931224 276.22742036 432.3476181 271.25309753 C432.65429327 183.31503733 414.8263509 85.81317742 352 20 C350.80380109 18.632561 349.61534327 17.25828105 348.4375 15.875 C344.82863035 11.69399248 340.89173928 7.86004356 336.94140625 4.00390625 C335 2 335 2 335 1 C347.32855762 0.86799055 359.6571304 0.73750502 371.9857235 0.60884857 C377.71330924 0.54903229 383.44088897 0.48873395 389.16845703 0.42724609 C394.71874411 0.36768063 400.26904424 0.30949599 405.81935501 0.25218201 C407.91351441 0.23033115 410.00766909 0.20802196 412.10181808 0.18519592 C423.6504787 0.05965253 435.19733102 -0.01352989 446.74673462 -0.0057373 C447.93290784 -0.00532314 449.11908106 -0.00490898 450.34119892 -0.00448227 C453.22746642 -0.00341415 456.11373296 -0.00191366 459 0 C459.09560738 55.0381465 459.19110439 110.0762932 459.28601074 165.11444092 C459.28742048 165.93195841 459.28883022 166.74947591 459.29028267 167.59176666 C459.32093601 185.36825473 459.35156939 203.14474284 459.38218227 220.92123099 C459.39719984 229.64166051 459.41222181 238.36209002 459.42724609 247.08251953 C459.42948836 248.38404479 459.42948836 248.38404479 459.43177592 249.71186348 C459.48003368 277.72195386 459.52858069 305.73204373 459.57728135 333.74213334 C459.62742045 362.58043476 459.67726046 391.41873668 459.7267361 420.25703924 C459.73376049 424.35132929 459.74078822 428.44561933 459.74781799 432.53990936 C459.74920114 433.3455464 459.75058429 434.15118343 459.75200936 434.98123371 C459.77408131 447.83241634 459.79645889 460.68359841 459.81895734 473.5347803 C459.8416935 486.52560505 459.86409207 499.51643035 459.88616979 512.50725624 C459.89809166 519.51707101 459.9101465 526.52688549 459.92262459 533.5366993 C459.9838524 568.02450312 460.01312577 602.51214104 460 637 C456.43557111 637.05147418 452.8711369 637.10257063 449.30670166 637.1536026 C448.30471552 637.16807694 447.30272938 637.18255127 446.27038002 637.19746423 C438.74021927 637.30500652 431.21043162 637.38501465 423.6796875 637.43945312 C416.27219625 637.49325433 408.86570625 637.55689244 401.45898438 637.67895508 C395.48721481 637.7767537 389.51651873 637.83055993 383.54401016 637.85389519 C381.26568828 637.87052378 378.98742513 637.90299731 376.70956039 637.95157051 C373.5171602 638.01693709 370.32919231 638.0259019 367.13623047 638.02172852 C365.72389885 638.07026474 365.72389885 638.07026474 364.28303528 638.11978149 C361.57360389 638.08146763 359.5415882 637.94894469 357 637 C354.38717192 634.28772517 352.701321 631.33913294 351 628 C350.39414063 627.000896 349.78828125 626.00179199 349.1640625 624.97241211 C348.65617187 624.08303955 348.14828125 623.19366699 347.625 622.27734375 C347.03976562 621.25705078 346.45453125 620.23675781 345.8515625 619.18554688 C345.24054688 618.11369141 344.62953125 617.04183594 344 615.9375 C342.66718751 613.6129802 341.33384757 611.28876911 340 608.96484375 C339.49666138 608.08679581 339.49666138 608.08679581 338.9831543 607.19100952 C335.6861475 601.44265547 332.34623709 595.71978628 329 590 C324.17521751 581.74797697 319.39006277 573.47413318 314.625 565.1875 C309.48345339 556.25125682 304.27029364 547.36088875 299 538.5 C293.08994568 528.56348841 287.26706418 518.58095399 281.50390625 508.55859375 C277.36240185 501.35673557 273.1930017 494.17199137 269 487 C264.17548226 478.74782123 259.39006389 470.47413512 254.625 462.1875 C248.82606328 452.10868274 242.92298244 442.09548165 236.97875977 432.10180664 C231.81660681 423.4101904 226.74887216 414.6673386 221.71044922 405.90356445 C217.05321216 397.80901656 212.35217048 389.74131756 207.625 381.6875 C207.27092072 381.08423889 206.91684143 380.48097778 206.55203247 379.85943604 C204.75430781 376.7970843 202.95590768 373.73512988 201.15722656 370.67333984 C197.9544572 365.22074351 194.75754687 359.76471307 191.56021118 354.30892944 C190.49954582 352.49922507 189.43865479 350.68965318 188.37768555 348.88012695 C185.17914269 343.42477339 181.98133856 337.96899246 178.78688049 332.51124573 C171.49374067 320.05102892 164.18261098 307.6023833 156.8125 295.1875 C150.69889518 284.88855317 144.64297552 274.55754751 138.6171875 264.20703125 C134.65401452 257.40099756 130.67186651 250.60613698 126.6875 243.8125 C126.33164825 243.20569397 125.97579651 242.59888794 125.60916138 241.97369385 C123.79737162 238.8842296 121.98540782 235.79486748 120.17333984 232.70556641 C116.96765731 227.24015517 113.76362141 221.77377869 110.55947876 216.3074646 C108.78972162 213.28826922 107.01985522 210.26913789 105.25 207.25 C104.54166614 206.04166697 103.83333281 204.83333364 103.125 203.625 C102.774375 203.026875 102.42375 202.42875 102.0625 201.8125 C95.33333333 190.33333333 88.60416667 178.85416667 81.875 167.375 C81.34907005 166.47782761 81.34907005 166.47782761 80.81251526 165.56253052 C80.10412584 164.35409852 79.39574165 163.14566346 78.68736267 161.93722534 C76.91743021 158.91787646 75.14740728 155.89858069 73.37719727 152.87939453 C70.17889606 147.4243208 66.9812625 141.96886127 63.7869873 136.51142883 C55.70945409 122.71108335 47.60666322 108.9265626 39.43920898 95.17919922 C38.82762939 94.14939941 38.2160498 93.11959961 37.5859375 92.05859375 C36.79775635 90.73299438 36.79775635 90.73299438 35.99365234 89.38061523 C34.11133109 86.18878296 32.24194377 82.98978782 30.37539673 79.78871155 C29.74369883 78.70546632 29.11200092 77.62222109 28.46116066 76.50615025 C27.97897764 75.67912066 27.49679462 74.85209108 27 74 C26.93113797 117.44029509 26.87837222 160.88058433 26.84680401 204.32092337 C26.84305248 209.46460004 26.83916945 214.60827661 26.83520508 219.75195312 C26.83402468 221.2877923 26.83402468 221.2877923 26.83282044 222.85465853 C26.81981271 239.37254981 26.79618478 255.89040935 26.76854161 272.40828188 C26.74035779 289.39251114 26.72379651 306.37672394 26.71773452 323.36097562 C26.7136448 333.81750059 26.70079025 344.2739358 26.6762506 354.73043309 C26.66023264 361.92814396 26.65563537 369.12580931 26.65949587 376.32353665 C26.66139283 380.45885861 26.65875974 384.59402523 26.64238358 388.72931862 C26.37356287 460.29743162 41.28456656 542.81470539 89.65966797 598.44189453 C91.63288008 600.73570869 93.53440192 603.08539511 95.4375 605.4375 C98.91074361 609.70747333 102.46853531 613.89448761 106.0625 618.0625 C120 634.26288251 120 634.26288251 120 637 C80.07 637 40.14 637 -1 637 C-0.67 426.79 -0.34 216.58 0 0 Z " fill="#F2EDE7" transform="translate(1557,0)"/>
<path d="M0 0 C34.76048226 -0.04596225 69.52095748 -0.08111235 104.28146366 -0.10213066 C108.40240486 -0.10463152 112.523346 -0.10722022 116.64428711 -0.10986328 C117.87469011 -0.11065021 117.87469011 -0.11065021 119.12994974 -0.11145304 C132.342763 -0.12011215 145.55555853 -0.13585681 158.76836134 -0.15430559 C172.36594914 -0.17313069 185.96352778 -0.1841431 199.56112808 -0.18817699 C207.92478281 -0.19089617 216.28838739 -0.19942474 224.65202665 -0.21583293 C230.41818626 -0.22655628 236.18432065 -0.22956674 241.95048947 -0.22700275 C245.25759324 -0.22574477 248.56454217 -0.22857264 251.87164116 -0.23841095 C265.78677035 -0.27771336 279.63098726 0.01743108 293.51622009 0.90090942 C295.40711974 1.0196526 295.40711974 1.0196526 297.33621937 1.14079463 C329.89495217 3.38791505 361.55231623 12.04391349 391 26 C391.67337402 26.31018066 392.34674805 26.62036133 393.04052734 26.93994141 C408.67447922 34.14886679 423.07878114 43.61280712 436 55 C436.96035156 55.83917969 437.92070313 56.67835937 438.91015625 57.54296875 C472.68873038 87.50571368 493.19430895 127.75148886 501 172 C501.226875 173.24652344 501.45375 174.49304688 501.6875 175.77734375 C509.51197404 228.42953365 496.33782693 282.22621286 464.84765625 324.91796875 C431.90488348 367.29221021 382.71021062 391.34770105 329.98271179 398.26463318 C324.59235691 398.90858398 319.28180302 399.17384578 313.85546875 399.203125 C313.00559891 399.20882507 312.15572906 399.21452515 311.28010559 399.22039795 C309.48761208 399.22978568 307.69510179 399.23635692 305.90258789 399.24023438 C303.23225517 399.24983902 300.56272767 399.28088013 297.89257812 399.3125 C258.37191682 399.55589147 219.58165603 387.17202808 190.27734375 360.08984375 C188.33265893 358.3052702 186.35070219 356.61254813 184.3125 354.9375 C180.44996985 351.62931446 177.23335525 347.91663032 174 344 C173.56526367 343.47760742 173.13052734 342.95521484 172.68261719 342.41699219 C165.15142732 333.33361133 158.27367705 323.99328848 152 314 C151.60103516 313.36964844 151.20207031 312.73929687 150.79101562 312.08984375 C130.81233007 280.23976533 119.28081049 244.62389528 107.87109375 209.0703125 C107.61012405 208.25792114 107.34915436 207.44552979 107.08027649 206.60852051 C106.83520859 205.84068237 106.59014069 205.07284424 106.33764648 204.28173828 C106.12655746 203.62086212 105.91546844 202.95998596 105.69798279 202.27908325 C104.75454713 199.19853679 103.88257344 196.09845777 103 193 C102.76792718 338.42208208 102.76792718 338.42208208 103.28914261 483.84261703 C103.31210098 487.43751953 103.32994831 491.03241116 103.34616089 494.62734985 C103.52650466 532.66258011 105.42581083 570.45890955 109.1875 608.3125 C109.45580786 611.04904489 109.72187166 613.78575397 109.98298645 616.522995 C110.13999481 618.16633106 110.3008962 619.80930358 110.46708679 621.45173645 C110.97279003 626.70817812 111 631.66285183 111 637 C72.72 637 34.44 637 -5 637 C-5 604.92679196 -5 604.92679196 0.70703125 598.12890625 C3.36026248 595.55770023 6.29057792 593.39332212 9.30419922 591.26416016 C38.04611715 569.83806585 51.82200412 526.03647878 56.875 492.4375 C63.49230172 442.38897881 50.98885039 391.17126575 20.2479189 350.99273956 C19.77423067 350.3763855 19.30054243 349.76003145 18.8125 349.125 C18.38447828 348.56063425 17.95645656 347.9962685 17.51546448 347.41480076 C15.10486232 344.33507727 12.77976252 341.70387007 9.6405077 339.35610771 C3.35102 334.39145469 -0.14353034 329.57929182 -1.17643166 321.49634171 C-1.71960162 313.87953579 -1.64383612 306.27411912 -1.50885308 298.64498067 C-1.45228474 294.63020783 -1.47174039 290.61567615 -1.48158264 286.60061646 C-1.48837293 279.65824976 -1.44787002 272.7174812 -1.37449074 265.77551651 C-1.26847153 255.73910995 -1.23494535 245.70346976 -1.21864685 235.66656397 C-1.19025134 219.37964844 -1.10389363 203.09358322 -0.98071289 186.80712891 C-0.86123722 170.9940209 -0.7692912 155.18114451 -0.71411133 139.36767578 C-0.70898822 137.90359115 -0.70898822 137.90359115 -0.70376161 136.40992905 C-0.68679513 131.51294401 -0.67036717 126.61595734 -0.65420687 121.71896958 C-0.51961638 81.14538849 -0.29080217 40.57274308 0 0 Z M103 24 C102.92440309 30.1401981 103.06089424 36.17449261 103.6640625 42.28515625 C103.73626007 43.04674545 103.80845764 43.80833466 103.88284302 44.59300232 C104.12276243 47.0836369 104.37233626 49.57312722 104.625 52.0625 C104.71269653 52.93181152 104.80039307 53.80112305 104.89074707 54.69677734 C113.59420703 140.05033483 131.37675184 230.99886661 197 328 C197.50112305 328.54495117 198.00224609 329.08990234 198.51855469 329.65136719 C220.23160582 352.98782401 248.78852727 367.09943763 280.7109375 369.25 C307.90296113 370.11840794 332.04430669 359.47150796 351.9453125 341.3125 C385.95146965 309.08090949 395.71900369 260.15026759 397 215 C398.00490498 162.73991644 385.68554646 105.49637563 348.640625 66.73828125 C347.76921875 65.83464844 346.8978125 64.93101563 346 64 C345.27296875 63.20980469 344.5459375 62.41960938 343.796875 61.60546875 C323.74917503 40.4068823 292.49544354 26.06907253 263.36715126 24.8937664 C260.28208937 24.83776239 257.19807831 24.81095063 254.11254883 24.79467773 C252.94186356 24.78477814 251.77117828 24.77487854 250.5650177 24.76467896 C246.69570918 24.7331264 242.82638917 24.70828283 238.95703125 24.68359375 C236.23214549 24.66346518 233.50727056 24.64200597 230.78239441 24.62062073 C225.05359815 24.57639108 219.32478584 24.53565503 213.59594727 24.49731445 C206.36590178 24.4489134 199.13590854 24.39506838 191.90591621 24.33934593 C162.27074758 24.11095629 132.63623734 23.91310813 103 24 Z " fill="#F2EDE7" transform="translate(493,0)"/>
<path d="M0 0 C0.90709717 0.65669678 0.90709717 0.65669678 1.83251953 1.32666016 C11.22719117 8.15935882 20.28786236 15.3160368 29 23 C29.53141602 23.46825195 30.06283203 23.93650391 30.61035156 24.41894531 C36.1376489 29.31836839 41.49682164 34.26126153 46.24609375 39.9375 C48.31455687 42.36990206 50.50187868 44.67236525 52.6875 47 C67.6298249 63.45461458 79.6311882 82.48660371 90.25 101.9375 C90.81130615 102.96230469 91.3726123 103.98710938 91.95092773 105.04296875 C92.46727783 106.0071875 92.98362793 106.97140625 93.515625 107.96484375 C94.20060059 109.24282837 94.20060059 109.24282837 94.89941406 110.54663086 C96.01778896 113.03965422 96.57545528 115.30871118 97 118 C84.65007535 125.09261715 72.24100906 132.01553 59.57788086 138.53466797 C53.77069368 141.53061599 48.03199426 144.6244663 42.32373047 147.8046875 C10.15233125 165.69561261 10.15233125 165.69561261 -2 163 C-2.25579834 162.0706665 -2.51159668 161.14133301 -2.77514648 160.18383789 C-17.15316837 108.13019854 -36.4702704 49.40418007 -80 14 C-80.49628906 13.59136719 -80.99257812 13.18273437 -81.50390625 12.76171875 C-89.61001879 6.11202359 -97.88310196 0.22198657 -107 -5 C-108.07894531 -5.64453125 -109.15789062 -6.2890625 -110.26953125 -6.953125 C-127.25554595 -16.80195474 -146.65792899 -22.95227431 -166 -26 C-167.75376953 -26.28617188 -167.75376953 -26.28617188 -169.54296875 -26.578125 C-213.40912287 -31.73442572 -259.50704171 -20.22042286 -294.39379883 7.17944336 C-300.17813912 11.85515636 -305.6190885 16.87178323 -311 22 C-311.83015625 22.76570312 -312.6603125 23.53140625 -313.515625 24.3203125 C-369.65645452 77.74465027 -388.82282069 169.38359069 -390.94140625 243.50292969 C-393.06903099 334.17520383 -370.20405271 428.27421658 -306.46484375 495.62207031 C-298.229439 504.24198864 -289.65809591 512.00602231 -280 519 C-279.14100098 519.62551758 -279.14100098 519.62551758 -278.26464844 520.26367188 C-255.19631384 536.85010202 -229.67928419 547.17229773 -202 553 C-201.14583496 553.18079102 -200.29166992 553.36158203 -199.41162109 553.54785156 C-144.30302478 564.5411587 -81.096189 550.87155316 -34 521 C-33.30745117 520.56075195 -32.61490234 520.12150391 -31.90136719 519.66894531 C-18.18547685 510.88768392 -5.38666441 501.34915119 6.55078125 490.265625 C8.68387867 488.29242483 10.85358987 486.38705297 13.0625 484.5 C19.85820502 478.58160936 26.20361631 472.14092307 32.05078125 465.28515625 C33.55048008 463.52699229 35.07319016 461.7884375 36.60546875 460.05859375 C49.12939306 445.84704844 59.92155083 430.40876949 70.29882812 414.58837891 C73.72209228 409.37979013 77.17441746 404.19051125 80.625 399 C81.3247998 397.94208252 82.02459961 396.88416504 82.74560547 395.79418945 C83.7261792 394.31825317 83.7261792 394.31825317 84.7265625 392.8125 C85.31002441 391.93207031 85.89348633 391.05164062 86.49462891 390.14453125 C88 388 88 388 90 386 C96.46153846 386.46153846 96.46153846 386.46153846 99 389 C99.24570294 391.68051378 99.36685577 394.26158235 99.40161133 396.94702148 C99.42855324 398.17916634 99.42855324 398.17916634 99.45603943 399.436203 C99.51091454 402.16445251 99.54877972 404.89249821 99.58203125 407.62109375 C99.59392675 408.55433031 99.60582226 409.48756687 99.61807823 410.44908333 C99.67745384 415.39594011 99.72124964 420.34270233 99.75512695 425.28979492 C99.7861931 429.37324866 99.84868996 433.45431496 99.93969727 437.53686523 C100.04967704 442.47377153 100.10478062 447.40849916 100.12152672 452.34657478 C100.13673168 454.22171716 100.17061746 456.0968111 100.22416115 457.97125053 C100.66074063 474.15983726 100.66074063 474.15983726 95.24997234 480.05271244 C92.95946611 482.21799261 90.52759306 484.11968505 88 486 C86.18418331 487.51687179 84.3711965 489.0371452 82.5625 490.5625 C81.19158203 491.65304687 81.19158203 491.65304687 79.79296875 492.765625 C76.93157661 495.05473871 74.15759843 497.42850025 71.375 499.8125 C-5.0828686 563.54383305 -109.05130514 591.78448154 -207.3671875 583.75390625 C-290.68025769 576.05497294 -384.26128077 541.22034046 -439.328125 474.9765625 C-440.54518721 473.53769923 -441.81327867 472.14153919 -443.109375 470.7734375 C-496.50840185 414.40779805 -521.56988515 335.91598778 -521.3125 259.4375 C-521.31034485 258.28603485 -521.3081897 257.1345697 -521.30596924 255.94821167 C-521.25637121 239.4474069 -520.9790867 223.27389681 -518 207 C-517.70198486 205.31003906 -517.70198486 205.31003906 -517.39794922 203.5859375 C-511.51148909 170.92159547 -501.65395876 139.34024114 -486 110 C-483.06643373 111.3812756 -480.51331387 112.99605322 -477.875 114.875 C-468.28772013 121.28218541 -458.3423015 124.21129304 -446.8125 122.375 C-440.17901297 120.77453964 -435.03144766 117.90232239 -431 112.3125 C-426.74359792 104.3981614 -429.29274096 95.24038381 -431.1875 86.91796875 C-431.40946045 85.90076248 -431.6314209 84.88355621 -431.86010742 83.83552551 C-432.56363492 80.61727361 -433.28082941 77.40228907 -434 74.1875 C-434.71732085 70.95450124 -435.43158448 67.72090177 -436.13989258 64.48591614 C-436.57937447 62.48131837 -437.02429312 60.47790274 -437.4753418 58.47587585 C-437.77565308 57.1133947 -437.77565308 57.1133947 -438.08203125 55.72338867 C-438.25968018 54.92970383 -438.4373291 54.13601898 -438.62036133 53.31828308 C-439.03491971 50.78676099 -439.21782967 48.55964531 -439 46 C-437.23048548 43.69668193 -435.52728876 41.73560777 -433.5 39.6875 C-432.94900635 39.11354492 -432.3980127 38.53958984 -431.83032227 37.94824219 C-430.72866729 36.8048786 -429.62142124 35.66687237 -428.50830078 34.53466797 C-427.26185368 33.26643125 -426.03282331 31.98110263 -424.80859375 30.69140625 C-420.44594997 26.16482178 -415.72289509 22.19081608 -410.81640625 18.265625 C-409.05131551 16.84571844 -407.3054783 15.40115795 -405.58984375 13.921875 C-391.79813264 2.11914283 -376.03180711 -7.55411665 -360 -16 C-359.38979004 -16.32629395 -358.77958008 -16.65258789 -358.15087891 -16.98876953 C-320.85784491 -36.82130146 -279.80389265 -48.00100005 -238 -53 C-237.05157227 -53.11714355 -236.10314453 -53.23428711 -235.12597656 -53.35498047 C-156.76652652 -62.63620361 -64.71411788 -46.99374198 0 0 Z " fill="#F2EDE7" transform="translate(1875,760)"/>
<path d="M0 0 C1.72019407 0.00187312 3.44038869 0.00329278 5.1605835 0.00428772 C9.61223922 0.00804266 14.06386049 0.01780971 18.51550293 0.0289917 C23.08845555 0.03936004 27.66141393 0.04381781 32.234375 0.04882812 C41.15105652 0.05944096 50.06771286 0.07642885 58.984375 0.09765625 C63.97276517 10.52444527 68.1151388 21.29421775 72.3671875 32.03515625 C73.20506541 34.14541848 74.04323857 36.25556351 74.88168335 38.36560059 C76.68132487 42.89563135 78.47953338 47.42622705 80.27661133 51.95727539 C84.89168691 63.59232227 89.51647899 75.22350851 94.142766 86.85410118 C94.64791822 88.12408524 95.15304184 89.39408067 95.65813732 90.6640873 C106.09355819 116.90264005 116.61200981 143.10747037 127.15758514 169.30194092 C142.46159527 207.31674831 157.67778467 245.36532635 172.81562805 283.44660187 C188.53586802 322.99212218 204.36068535 362.49477698 220.26010513 401.96860027 C228.62801261 422.74441391 236.97401619 443.52723474 245.17797852 464.36839294 C253.21198576 484.77564272 261.33135732 505.14899831 269.44384766 525.52514648 C271.29786897 530.18204278 273.15104474 534.83927407 275.00341797 539.49682617 C277.75079848 546.40472372 280.50006252 553.31187001 283.25 560.21875 C283.69607101 561.33964397 284.14214203 562.46053795 284.60173035 563.61539841 C289.55201934 576.05103307 294.53145392 588.47392314 299.57617188 600.87158203 C300.02375225 601.97278035 300.47133263 603.07397867 300.93247604 604.20854664 C303.05991739 609.4416495 305.19270768 614.67244482 307.33551025 619.89927673 C308.08812186 621.746657 308.84055366 623.59411054 309.59277344 625.44165039 C309.93925682 626.28083826 310.2857402 627.12002613 310.64272308 627.98464394 C311.10934231 629.13494622 311.10934231 629.13494622 311.58538818 630.30848694 C311.85731869 630.97220338 312.12924919 631.63591982 312.40942001 632.31974888 C312.984375 634.09765625 312.984375 634.09765625 312.984375 637.09765625 C278.994375 637.09765625 245.004375 637.09765625 209.984375 637.09765625 C196.35452878 604.15886123 196.35452878 604.15886123 191.1602478 590.68539429 C189.47612705 586.31946985 187.77884356 581.95866057 186.08203125 577.59765625 C185.73674881 576.70995041 185.39146637 575.82224457 185.03572083 574.90763855 C181.63536913 566.17828995 178.16191412 557.47895858 174.671875 548.78515625 C167.83430868 531.74523783 161.04628849 514.68591172 154.27402115 497.6199646 C152.85108333 494.0343282 151.42784278 490.44881196 150.00463867 486.86328125 C148.22843061 482.38831914 146.45226313 477.91334093 144.67619324 473.43832397 C138.1599843 457.01997152 131.64324473 440.60183017 125.12221813 424.18539047 C123.38661018 419.81600056 121.65135105 415.44647289 119.91696167 411.07659912 C118.28634283 406.96818337 116.65483584 402.86012145 115.02265739 398.75232506 C114.42171592 397.23944725 113.82109695 395.7264413 113.2208271 394.21329689 C112.39549545 392.13297606 111.56898201 390.05312846 110.7421875 387.97338867 C110.2795752 386.80837326 109.81696289 385.64335785 109.34033203 384.44303894 C107.93383339 380.97296129 106.47042782 377.53427294 104.984375 374.09765625 C104.74952393 374.76369873 104.51467285 375.42974121 104.27270508 376.1159668 C81.60892699 439.92539137 46.85945114 503.7355179 -2.234375 551.3203125 C-4.0319007 553.11389625 -5.6803896 554.97873055 -7.328125 556.91015625 C-13.6400542 564.23084125 -20.59080454 571.0369793 -27.9453125 577.3046875 C-30.3983661 579.42912449 -32.76265647 581.63954262 -35.140625 583.84765625 C-41.4966746 589.62826103 -48.17177583 594.90902373 -55.015625 600.09765625 C-55.67916992 600.60699707 -56.34271484 601.11633789 -57.02636719 601.64111328 C-88.0188893 625.31940018 -125.28036598 643.79670467 -165.2421875 639.87939453 C-185.61680015 637.08181861 -203.71758336 627.28958927 -217.04296875 611.73046875 C-224.30112411 601.95417786 -229.60566281 590.66259067 -232.890625 578.97265625 C-233.08156738 578.29396484 -233.27250977 577.61527344 -233.46923828 576.91601562 C-236.48806868 565.27860233 -237.38299267 553.51982345 -237.328125 541.53515625 C-237.32248535 540.22595215 -237.3168457 538.91674805 -237.31103516 537.56787109 C-237.17412334 526.51325899 -236.22775078 515.92413254 -234.015625 505.09765625 C-233.83821777 504.20578613 -233.66081055 503.31391602 -233.47802734 502.39501953 C-227.5583261 473.67015877 -215.37809108 446.54497333 -203.015625 420.09765625 C-202.52674805 419.04690918 -202.03787109 417.99616211 -201.53417969 416.91357422 C-195.87792229 404.79329806 -189.91776202 392.87001107 -183.60644531 381.07910156 C-181.69914162 377.50451706 -179.80595754 373.92260069 -177.9140625 370.33984375 C-170.22074933 355.77477617 -162.49272066 341.22944423 -154.70043945 326.71704102 C-149.77121569 317.52859141 -144.88837285 308.31614584 -140.015625 299.09765625 C-134.54510365 288.74827112 -129.0528376 278.4115612 -123.515625 268.09765625 C-121.01383508 263.43194735 -118.51386291 258.7652679 -116.015625 254.09765625 C-115.49418915 253.12372925 -115.49418915 253.12372925 -114.96221924 252.13012695 C-85.00347473 196.15329391 -54.20966425 138.02601937 -42.015625 75.09765625 C-41.72365234 73.59525391 -41.72365234 73.59525391 -41.42578125 72.0625 C-37.12079099 48.90559161 -36.16301051 24.52156384 -39.015625 1.09765625 C-25.99661142 0.34135633 -13.03969013 -0.04287093 0 0 Z M-16.015625 63.09765625 C-18.0098413 67.59281593 -19.08130662 72.17759972 -20.1953125 76.9453125 C-20.62608199 78.74774412 -21.05801744 80.54989739 -21.4909668 82.35180664 C-21.71811371 83.29814972 -21.94526062 84.2444928 -22.17929077 85.21951294 C-29.93821803 117.29478307 -39.96344592 147.23230867 -54.14691162 177.02842712 C-56.70093031 182.39932722 -59.15297027 187.80982422 -61.54962158 193.25305176 C-63.49414465 197.66699411 -65.45213314 202.07487701 -67.41120911 206.4823761 C-68.44257308 208.80638056 -69.4709704 211.13170508 -70.49565125 213.45866394 C-81.95399117 239.43227857 -94.69009922 264.74280595 -107.46594238 290.08770752 C-127.86646479 330.29106756 -127.86646479 330.29106756 -147.015625 371.09765625 C-147.36105347 371.86397369 -147.70648193 372.63029114 -148.06237793 373.41983032 C-162.55170291 405.61766094 -176.18161287 440.79486926 -180.015625 476.09765625 C-180.12519531 477.10441406 -180.23476562 478.11117188 -180.34765625 479.1484375 C-182.47584345 501.48021523 -180.26287196 524.80187405 -166.328125 543.22265625 C-153.75743249 558.14889597 -136.01886812 566.09208585 -116.828125 567.91015625 C-95.85706356 568.93731028 -76.66949118 563.203733 -58.015625 554.09765625 C-57.36207031 553.783125 -56.70851563 553.46859375 -56.03515625 553.14453125 C-24.46302509 537.78159733 2.04394487 511.90905377 22.984375 484.09765625 C23.48018066 483.44764648 23.97598633 482.79763672 24.48681641 482.12792969 C49.32779706 449.42964736 67.89110101 411.98124034 82.921875 373.91015625 C83.19136963 373.22881622 83.46086426 372.5474762 83.73852539 371.8454895 C85.28273977 367.92582983 86.7860073 363.9934011 88.25115967 360.04351807 C89.00264064 358.04918151 89.79034383 356.07135132 90.57861328 354.09130859 C91.07101574 352.78546291 91.56179943 351.47900541 92.05078125 350.171875 C92.71702515 348.4542395 92.71702515 348.4542395 93.39672852 346.7019043 C94.19980329 341.7763568 92.84073526 338.62991789 90.984375 334.09765625 C90.3834548 332.50152027 89.78379526 330.90490919 89.18530273 329.30786133 C88.5150688 327.57677915 87.84250665 325.84659712 87.16796875 324.1171875 C86.61550476 322.6933374 86.61550476 322.6933374 86.05187988 321.24072266 C84.84404657 318.12968643 83.63304182 315.01989606 82.421875 311.91015625 C81.56766807 309.712531 80.71358477 307.5148577 79.85961914 305.31713867 C72.38141094 286.08120949 64.86381243 266.86066975 57.33348083 247.64509583 C53.58897241 238.08998252 49.84948097 228.53290868 46.11038208 218.97567749 C44.23524869 214.18292458 42.35979586 209.39029668 40.484375 204.59765625 C39.73437347 202.68099018 38.98437347 200.76432352 38.234375 198.84765625 C37.863125 197.89890625 37.491875 196.95015625 37.109375 195.97265625 C35.421875 191.66015625 35.421875 191.66015625 33.734375 187.34765625 C33.36314011 186.39894653 32.99190521 185.45023682 32.60942078 184.47277832 C31.85926359 182.55570655 31.109111 180.63863299 30.35896301 178.72155762 C28.48640573 173.93607421 26.61376901 169.15062193 24.7409668 164.36523438 C21.33681504 155.66670754 17.93328983 146.96793789 14.53265381 138.26803589 C4.73092426 113.19229446 -5.11059551 88.13278448 -15.015625 63.09765625 C-15.345625 63.09765625 -15.675625 63.09765625 -16.015625 63.09765625 Z " fill="#F2EDE7" transform="translate(1232.015625,-0.09765625)"/>
<path d="M0 0 C31.35 0 62.7 0 95 0 C101.8801197 14.90692601 101.8801197 14.90692601 104.93359375 22.21484375 C105.45938774 23.46469307 105.45938774 23.46469307 105.99580383 24.73979187 C106.75060282 26.53433292 107.5044618 28.32926959 108.25744629 30.12457275 C110.336882 35.0813822 112.42461308 40.03469754 114.51171875 44.98828125 C114.95270905 46.03530212 115.39369934 47.082323 115.84805298 48.16107178 C121.1167091 60.66265116 126.43125379 73.14466637 131.75 85.625 C132.24048828 86.77595154 132.73097656 87.92690308 133.23632812 89.11273193 C146.73432944 120.78099103 160.31461431 152.41227294 174 184 C174.43088928 184.99456207 174.43088928 184.99456207 174.8704834 186.00921631 C177.2687481 191.54454516 179.6675249 197.07965195 182.06689453 202.61450195 C186.72811393 213.36824298 191.37982186 224.12608723 196.03076172 234.88427734 C200.51571696 245.25826645 205.00470092 255.63048864 209.5 266 C214.27640589 277.01842632 219.04642625 288.03960049 223.8125 299.0625 C224.31398056 300.22230881 224.31398056 300.22230881 224.82559204 301.4055481 C227.56097434 307.73198796 230.29605598 314.0585578 233.03112793 320.38513184 C235.41644685 325.90264775 237.80188101 331.42011382 240.1875 336.9375 C240.52206207 337.71126984 240.85662415 338.48503967 241.20132446 339.28225708 C246.15086961 350.7289879 251.10686646 362.17290414 256.06713867 373.61499023 C260.72820557 384.36859933 265.37989395 395.12625398 270.03076172 405.88427734 C274.51571695 416.25826642 279.00468054 426.63049749 283.5 437 C288.68409668 448.95832776 293.85872597 460.92072899 299.03076172 472.88427734 C303.51571696 483.25826645 308.00470092 493.63048864 312.5 504 C317.95276152 516.57867367 323.39722608 529.1609228 328.83666992 541.74536133 C329.51610518 543.31722355 330.19554857 544.88908226 330.875 546.4609375 C331.2133638 547.24371567 331.5517276 548.02649384 331.90034485 548.83299255 C334.32646532 554.44462118 336.75636693 560.05460398 339.1875 565.6640625 C345.33109658 579.84259721 351.46580967 594.02448364 357.5 608.25 C358.1947644 609.88424927 358.1947644 609.88424927 358.90356445 611.55151367 C359.31695068 612.52967041 359.73033691 613.50782715 360.15625 614.515625 C360.69475586 615.78841309 360.69475586 615.78841309 361.24414062 617.08691406 C362 619 362 619 362 620 C337.89721744 620.9418672 313.80523311 621.0899455 289.6875 621.0625 C288.92995674 621.06164398 288.17241348 621.06078796 287.39191437 621.05990601 C277.92791873 621.04842551 268.46396096 621.02822083 259 621 C247.42525716 594.43618521 235.89836267 567.85423978 224.5625 541.1875 C224.09182098 540.08042694 223.62114197 538.97335388 223.13619995 537.83273315 C222.17768676 535.57818605 221.21918562 533.32363383 220.26069641 531.06907654 C219.78408066 529.94800003 219.3074649 528.82692352 218.81640625 527.671875 C218.33966965 526.55043594 217.86293304 525.42899689 217.37174988 524.27357483 C211.93408524 511.48650172 206.47167221 498.71005359 201 485.9375 C200.50436554 484.78037506 200.00873108 483.62325012 199.49807739 482.43106079 C192.53458832 466.17989685 185.51633661 449.95315812 178.46389771 433.74041748 C171.09259023 416.79420126 163.75375752 399.83603377 156.5625 382.8125 C156.21840088 382.00101501 155.87430176 381.18953003 155.51977539 380.35345459 C154.57306701 378.11877309 153.63128801 375.88209094 152.69140625 373.64453125 C152.41454483 372.99213974 152.13768341 372.33974823 151.85243225 371.66758728 C150 367.23039569 150 367.23039569 150 365 C149.34 365 148.68 365 148 365 C147.60425781 366.25039062 147.20851563 367.50078125 146.80078125 368.7890625 C138.11601246 394.76740881 124.3536412 419.74887742 110 443 C109.54979492 443.73557129 109.09958984 444.47114258 108.63574219 445.22900391 C98.29831461 462.07426372 87.07844361 478.35390223 75 494 C74.58717773 494.53753906 74.17435547 495.07507812 73.74902344 495.62890625 C68.66850135 502.23245679 63.47086349 508.72400164 58.0625 515.0625 C57.41897583 515.81926025 57.41897583 515.81926025 56.76245117 516.59130859 C47.80069751 526.98817247 38.29393844 536.89280034 28.59057617 546.59472656 C26.92922292 548.25828808 25.2760931 549.92975104 23.62304688 551.6015625 C17.05837243 558.20021144 10.3036892 564.21762733 3 570 C1.96030301 570.87461147 0.9251563 571.75472028 -0.1015625 572.64453125 C-25.23753812 594.23968058 -56.71654721 614.63457975 -89 623 C-89.9748938 623.26731934 -89.9748938 623.26731934 -90.96948242 623.54003906 C-112.23403816 628.91525284 -134.4941697 624.79025847 -153.2578125 614.05566406 C-157.55818352 611.44988992 -161.30770442 608.39666033 -165 605 C-165.82886719 604.26265625 -166.65773438 603.5253125 -167.51171875 602.765625 C-186.45391293 585.01275695 -193.90789892 559.77105848 -195.12426758 534.40893555 C-196.83270954 477.14174932 -172.63145478 423.97579108 -145.57958984 374.87695312 C-142.86363385 369.93030313 -140.18337157 364.9643774 -137.5 360 C-132.85762546 351.41991553 -128.19528412 342.85099519 -123.51953125 334.2890625 C-119.83214901 327.53370081 -116.16277201 320.76873308 -112.5 314 C-107.85717945 305.42015585 -103.19528508 296.85099696 -98.51953125 288.2890625 C-94.2773217 280.51724553 -90.05701658 272.73367553 -85.84887695 264.94335938 C-83.27897527 260.18951894 -80.69827734 255.44294347 -78.07421875 250.71875 C-71.31020069 238.51122061 -64.99544962 226.11644859 -58.79296875 213.61767578 C-55.1725608 206.32503335 -51.51369064 199.06267757 -47.6875 191.875 C-21.77219083 142.94780125 -1.70323038 90.06388779 0.8125 34.1875 C0.85358887 33.28346436 0.89467773 32.37942871 0.93701172 31.44799805 C1.24971699 20.91316087 0.48124101 10.58730229 0 0 Z M23 64 C22.8040625 64.74636719 22.608125 65.49273438 22.40625 66.26171875 C21.52205457 69.60412993 20.62629338 72.94322094 19.72753906 76.28173828 C19.2097025 78.2165008 18.69652498 80.15251289 18.18652344 82.08935547 C2.45033944 141.76661139 -24.33133231 196.8668097 -51.90509033 251.80175781 C-57.61759883 263.18358368 -63.18413429 274.62536052 -68.63574219 286.13476562 C-70.64608682 290.35692107 -72.68657954 294.5643643 -74.72363281 298.77368164 C-79.57720429 308.80731411 -84.34463906 318.87291403 -89 329 C-92.94784827 337.58573227 -97.00760887 346.10701404 -101.171875 354.58984375 C-101.6294519 355.52245026 -102.08702881 356.45505676 -102.55847168 357.41592407 C-104.83131174 362.04388232 -107.11170969 366.66793378 -109.40234375 371.28710938 C-128.23039555 409.40769901 -150.41722111 461.05544369 -137.3125 504.22265625 C-131.26328937 521.6321404 -120.68138893 534.32650589 -104.5 543.125 C-80.30634788 554.57405082 -52.5776378 551.46324804 -27.99267578 542.73876953 C-6.65934434 534.82959765 11.76270908 522.73722583 29 508 C29.77214844 507.34 30.54429687 506.68 31.33984375 506 C43.14006572 495.63308287 54.44027143 484.47709402 64 472 C65.02545416 470.69094581 66.05154538 469.38239053 67.078125 468.07421875 C92.05856252 436.04933456 110.71050741 400.0912242 126.41210938 362.75537109 C127.902832 359.21405296 129.44352129 355.6955847 130.984375 352.17578125 C131.84642629 350.13915156 132.70598102 348.10146252 133.5625 346.0625 C133.96315674 345.1643457 134.36381348 344.26619141 134.77661133 343.34082031 C136.91276107 338.09047622 137.38659848 334.88775157 135.19165039 329.62573242 C134.79840576 328.75924072 134.40516113 327.89274902 134 327 C133.28626141 325.24545061 132.57281944 323.49077689 131.86331177 321.73451233 C130.41843091 318.18532407 128.9235742 314.65708542 127.4375 311.125 C126.77142234 309.53495895 126.10565892 307.94478624 125.44018555 306.35449219 C124.02474511 302.9735278 122.6073981 299.59337209 121.18847656 296.21386719 C119.02601078 291.06322306 116.86785091 285.91078387 114.7109375 280.7578125 C114.35244217 279.90136139 113.99394684 279.04491028 113.62458801 278.1625061 C112.89181253 276.4118706 112.15904997 274.66122969 111.42630005 272.9105835 C110.30008958 270.22035468 109.17340539 267.53032465 108.04663086 264.84033203 C102.348011 251.23370905 96.67057645 237.61833076 91 224 C82.43066391 203.42108641 73.83138042 182.85485058 65.21777344 162.29443359 C61.85110031 154.25788896 58.48712137 146.22021651 55.12289429 138.18264771 C54.00949853 135.52269244 52.89600283 132.86277904 51.7824707 130.20288086 C48.26768796 121.8070377 44.75337105 113.41100024 41.24038696 105.0144043 C39.58090086 101.04803237 37.92119624 97.08175189 36.26147461 93.11547852 C35.47034962 91.22473651 34.67933171 89.3339497 33.88842773 87.44311523 C32.79177508 84.82133827 31.69475347 82.19971596 30.59765625 79.578125 C30.27660416 78.81030701 29.95555206 78.04248901 29.62477112 77.25140381 C27.77174625 72.82465624 25.89657392 68.40827253 24 64 C23.67 64 23.34 64 23 64 Z " fill="#F2EDE7" transform="translate(678,716)"/>
<path d="M0 0 C146.52 0 293.04 0 444 0 C473 145 473 145 473 149 C470.04777019 150.22462866 467.08461363 151.164025 464 152 C462.66582031 152.37705078 462.66582031 152.37705078 461.3046875 152.76171875 C457.99183818 153.27610704 456.13781667 153.23095518 453 152 C449.43387703 147.93357267 447.01976872 143.37517092 444.45751953 138.63232422 C441.70984058 133.66993319 438.68979834 128.87363174 435.6875 124.0625 C435.04893066 123.03560059 434.41036133 122.00870117 433.75244141 120.95068359 C426.15848666 108.87122014 417.69613644 97.55430393 407.95703125 87.11328125 C406.15920181 85.17191254 404.49047478 83.16938119 402.8125 81.125 C394.12057474 71.18850345 383.07213263 63.06607295 372 56 C371.38882324 55.60603027 370.77764648 55.21206055 370.14794922 54.80615234 C342.15300583 36.96547485 311.23373985 28.58203616 278.66650391 23.94848633 C277.4152774 23.77029861 276.1640509 23.5921109 274.87490845 23.40852356 C273.45182877 23.2063044 273.45182877 23.2063044 272 23 C272.08202184 80.37681134 272.1742924 137.75359867 272.28005161 195.13037141 C272.29257489 201.92594408 272.3050037 208.72151691 272.31738281 215.51708984 C272.3192328 216.53132443 272.3192328 216.53132443 272.32112016 217.56604859 C272.36088215 239.38929655 272.39443531 261.21254856 272.42468691 283.0358116 C272.45675815 306.1469745 272.49607754 329.25811696 272.54279006 352.36925566 C272.5704755 366.17917867 272.59259339 379.98908636 272.60726251 393.79902942 C272.61792024 403.30815946 272.63586051 412.8172596 272.65916704 422.32636695 C272.6723486 427.78764688 272.68266769 433.24888551 272.68421364 438.71018219 C272.69770096 474.29766065 273.7670513 509.78141599 276.8125 545.25 C276.89415405 546.23278931 276.97580811 547.21557861 277.05993652 548.22814941 C278.5441629 566.08354161 280.39734546 583.89494192 282.42504883 601.69628906 C282.53007217 602.62308472 282.63509552 603.54988037 282.74330139 604.50476074 C282.93934749 606.2271679 283.13800366 607.94928091 283.33982849 609.67102051 C283.42716751 610.43539429 283.51450653 611.19976807 283.60449219 611.98730469 C283.68125183 612.64559265 283.75801147 613.30388062 283.83709717 613.9821167 C284.02538568 616.3144534 284 618.66007542 284 621 C243.41 621 202.82 621 161 621 C162.32 606.81 163.64 592.62 165 578 C165.66665513 569.71909758 166.33110437 561.4483151 166.90087891 553.16186523 C167.12213247 549.97875433 167.35960695 546.7971274 167.59765625 543.61523438 C171.71869247 486.18385901 171.33614467 428.56914752 171.40061978 371.02926483 C171.41455369 358.9325132 171.43954866 346.83579076 171.46498732 334.73905875 C171.51004461 313.18054116 171.54682519 291.6220182 171.578125 270.06347656 C171.60848149 249.16730818 171.64290759 228.27115279 171.68261719 207.375 C171.68507874 206.0789469 171.68754028 204.78289381 171.69007643 203.44756638 C171.70245432 196.94325577 171.71491021 190.43894531 171.72740483 183.93463492 C171.83035505 130.28977485 171.91975751 76.64489853 172 23 C170.75923895 23.20683316 170.75923895 23.20683316 169.49341202 23.41784477 C168.41005444 23.59842493 167.32669685 23.77900509 166.21051025 23.96505737 C165.13583622 24.14419615 164.06116219 24.32333492 162.95392227 24.50790215 C160.84666947 24.8589522 158.73929375 25.20926481 156.63183594 25.55908203 C117.05589792 32.26699185 80.91225217 47.85072695 51 75 C49.95509517 75.92523421 48.90951223 76.84970313 47.86328125 77.7734375 C27.21207749 96.16153974 11.2845298 119.22861874 0.02856445 144.44091797 C-1.43032122 147.56807472 -2.44179241 149.66239605 -5.44140625 151.4765625 C-8.03154145 152.00645275 -10.35652751 152.2665217 -13 152.25 C-14.2375 152.25773437 -14.2375 152.25773437 -15.5 152.265625 C-18.28845877 151.96935126 -20.4257274 151.08012188 -23 150 C-20.83740363 132.61296339 -18.27225904 115.30127688 -15.5859375 97.98828125 C-15.16619095 95.27311457 -14.74714742 92.55783946 -14.32803345 89.84257507 C-13.45754589 84.20587482 -12.58493463 78.56950668 -11.7109375 72.93334961 C-10.70212359 66.42764612 -9.69661431 59.92143825 -8.69282758 53.41495734 C-7.72014193 47.11047032 -6.74534625 40.80631139 -5.76951981 34.5023098 C-5.35660626 31.83464716 -4.94439686 29.16687715 -4.53275681 26.49901772 C-3.960361 22.79243339 -3.38555308 19.08623125 -2.81005859 15.38012695 C-2.64070297 14.28050125 -2.47134735 13.18087555 -2.29685974 12.04792786 C-2.13995163 11.04072693 -1.98304352 10.033526 -1.82138062 8.99580383 C-1.68608633 8.12231954 -1.55079205 7.24883524 -1.41139793 6.34888172 C-1.03738164 4.21343096 -0.52580684 2.10322735 0 0 Z " fill="#F2EDE7" transform="translate(957,716)"/>
<path d="M0 0 C1.28016663 1.74978638 1.28016663 1.74978638 2.39086914 4.06298828 C3.02787498 5.36298264 3.02787498 5.36298264 3.67774963 6.6892395 C4.12569382 7.63999359 4.573638 8.59074768 5.03515625 9.5703125 C5.51391708 10.55756317 5.99267792 11.54481384 6.48594666 12.5619812 C8.02483444 15.74340555 9.54382767 18.93388405 11.0625 22.125 C12.05795468 24.19072636 13.05468675 26.25583766 14.05273438 28.3203125 C16.55250607 33.50011916 19.03522755 38.68787013 21.51119995 43.87908936 C23.48920808 48.02550688 25.47241422 52.16942989 27.4553833 56.31347656 C28.84039233 59.20821473 30.22464652 62.10331256 31.60864258 64.99853516 C34.33886579 70.70946928 37.07319447 76.41841571 39.8125 82.125 C40.298396 83.13739746 40.78429199 84.14979492 41.28491211 85.19287109 C45.49719226 93.96395657 49.72867661 102.72572618 53.96206665 111.4866333 C58.26730415 120.39722493 62.54972299 129.31841494 66.81225586 138.24951172 C69.35513356 143.57315372 71.90955472 148.89107721 74.4765625 154.203125 C74.92483147 155.13087234 74.92483147 155.13087234 75.38215637 156.07736206 C76.90219459 159.2224285 78.42373374 162.36676009 79.94702148 165.51025391 C82.48005872 170.74238386 85.00584513 175.97577691 87.43359375 181.2578125 C93.25754261 193.91566626 100.03342458 205.93902073 107 218 C108.77790026 221.07935418 110.54820202 224.16283772 112.3125 227.25 C112.69148437 227.89928467 113.07046875 228.54856934 113.4609375 229.2175293 C115.07434256 232.04137156 116 233.68823512 116 237 C78.38 237 40.76 237 2 237 C-2.6630955 227.67380901 -7.25785848 218.46369465 -11.42651367 208.92797852 C-13.44404886 204.32404002 -15.4742836 199.7258012 -17.5078125 195.12890625 C-17.86930893 194.31109177 -18.23080536 193.49327728 -18.60325623 192.65068054 C-22.9067051 182.92844981 -27.29697747 173.24563671 -31.6875 163.5625 C-33.30623948 159.99099862 -34.92471178 156.41937628 -36.54296875 152.84765625 C-36.93082047 151.99167847 -37.31867218 151.13570068 -37.71827698 150.25378418 C-40.99836642 143.01120792 -44.2541237 135.75798025 -47.5 128.5 C-58.45008282 104.02905276 -69.5047996 79.60461861 -80.66659546 55.22952271 C-90.2312109 34.34164687 -90.2312109 34.34164687 -94 25.9375 C-94.32057373 25.22916016 -94.64114746 24.52082031 -94.97143555 23.79101562 C-97 19.23572546 -97 19.23572546 -97 17 C-95.96951538 16.94054199 -95.96951538 16.94054199 -94.91821289 16.87988281 C-64.898674 15.07846166 -34.56016488 11.21615934 -6.50390625 -0.25 C-3.69611281 -1.09102393 -2.68531108 -1.07902592 0 0 Z " fill="#F2EDE7" transform="translate(887,400)"/>
<path d="M0 0 C6.27 0 12.54 0 19 0 C24.18816918 10.93442828 29.06669433 21.96949756 33.79125977 33.11157227 C34.95582182 35.85567238 36.12714047 38.59682659 37.29882812 41.33789062 C38.04206998 43.08576605 38.7849237 44.8338066 39.52734375 46.58203125 C39.87723862 47.39960403 40.22713348 48.21717682 40.58763123 49.05952454 C43 54.7705749 43 54.7705749 43 57 C43.66 57 44.32 57 45 57 C45.12133301 56.28293884 45.24266602 55.56587769 45.36767578 54.8270874 C46.01340303 51.94007576 46.94418734 49.47980779 48.1171875 46.76660156 C48.55434082 45.74914856 48.99149414 44.73169556 49.44189453 43.68341064 C50.15128174 42.05348175 50.15128174 42.05348175 50.875 40.390625 C51.35952637 39.26807312 51.84405273 38.14552124 52.34326172 36.98895264 C53.36650653 34.62103069 54.39211659 32.25412962 55.41992188 29.88818359 C56.99909898 26.25207462 58.57044699 22.61265903 60.140625 18.97265625 C61.13495846 16.67428088 62.12973479 14.37609705 63.125 12.078125 C63.83438721 10.43605072 63.83438721 10.43605072 64.55810547 8.76080322 C64.99525879 7.75595886 65.43241211 6.7511145 65.8828125 5.71582031 C66.46119873 4.38275848 66.46119873 4.38275848 67.05126953 3.02276611 C68 1 68 1 69 0 C75.27 0 81.54 0 88 0 C88 26.73 88 53.46 88 81 C82.39 81 76.78 81 71 81 C70.67 65.82 70.34 50.64 70 35 C67.6075 40.73375 65.215 46.4675 62.75 52.375 C61.62996582 55.05761963 61.62996582 55.05761963 60.48730469 57.79443359 C57.26947899 65.50826452 54.07146068 73.22635467 51 81 C46.38 81 41.76 81 37 81 C36.29653442 79.32828735 36.29653442 79.32828735 35.57885742 77.62280273 C33.82908809 73.46482803 32.07901698 69.30698039 30.32885742 65.14916992 C29.57324195 63.35395688 28.81770695 61.55870996 28.06225586 59.76342773 C26.97270826 57.17422595 25.88286574 54.58514847 24.79296875 51.99609375 C24.45847214 51.20101913 24.12397552 50.40594452 23.77934265 49.58677673 C23.45923721 48.82651688 23.13913177 48.06625702 22.80932617 47.28295898 C22.53174973 46.62343735 22.25417328 45.96391571 21.96818542 45.28440857 C20.65484298 42.18561091 19.32578369 39.09349527 18 36 C17.67 50.85 17.34 65.7 17 81 C11.39 81 5.78 81 0 81 C0 54.27 0 27.54 0 0 Z " fill="#F2EDE7" transform="translate(2672,2)"/>
<path d="M0 0 C19.8 0 39.6 0 60 0 C60 4.62 60 9.24 60 14 C53.07 14 46.14 14 39 14 C39 36.11 39 58.22 39 81 C33.39 81 27.78 81 22 81 C22 58.89 22 36.78 22 14 C14.74 14 7.48 14 0 14 C0 9.38 0 4.76 0 0 Z " fill="#F2EDE7" transform="translate(2601,2)"/>
</svg>
